# xmcd
#
# Track frame offsets:
#	150
#	13520
#	28094
#	43294
#	58549
#	75911
#	96067
#	116870
#	131378
#	149185
#	162551
#	178934
#	191441
#	208299
#	223652
#	236713
#	254765
#	268248
#	286057
#	298709
#	315498
#	329116
#
# Disc length: 4609 seconds
#
# Revision: 0
# Processed by: cddbd v1.5.2PL0 Copyright (c) Steve Scherf et al.
# Submitted via: EasyCDDAExtractor 16.0.6.1
#
DISCID=6511ff16
DTITLE=Kari Tapio - Olen suomalainen Cd 6
DYEAR=1900
DGENRE=
TTITLE0=M‰ tahdon el‰‰
TTITLE1=Angelique
TTITLE2=Takaa vuosien
TTITLE3=Syd‰mesi muukalainen
TTITLE4=Er‰maan kutsu
TTITLE5=Olen onnellinen
TTITLE6=Tanssi loppuun rakkauden
TTITLE7=Portugalin huhtikuu
TTITLE8=Mua paina syleilyys
TTITLE9=Johnny mua muistathan
TTITLE10=Paljon voit miehest‰ pelastaa
TTITLE11=Auta yˆ t‰‰ kest‰m‰‰n
TTITLE12=Osa minusta unohtui eiliseen
TTITLE13=Yksin‰isten pys‰kki
TTITLE14=El‰m‰ni nainen
TTITLE15=Rakkauden muistomerkki
TTITLE16=Kosketa katseella
TTITLE17=Luotan rakkauteen
TTITLE18=Kulkurin  kyyneleet
TTITLE19=Pienen pojan haaveet
TTITLE20=Keuruun neito
TTITLE21=Rantakoivun alla
EXTD=
EXTT0=
EXTT1=
EXTT2=
EXTT3=
EXTT4=
EXTT5=
EXTT6=
EXTT7=
EXTT8=
EXTT9=
EXTT10=
EXTT11=
EXTT12=
EXTT13=
EXTT14=
EXTT15=
EXTT16=
EXTT17=
EXTT18=
EXTT19=
EXTT20=
EXTT21=
PLAYORDER=
